<svg width="1396" height="1500" viewBox="0 0 1396 1500" fill="none" xmlns="http://www.w3.org/2000/svg">
<path d="M255.25 150.371H179.738C142.781 150.371 109.211 165.461 84.9219 189.75L84.8789 189.789L84.9219 189.828C60.5781 214.18 45.4648 247.75 45.4648 284.66V1320.24C45.4648 1357.14 60.5781 1390.73 84.9219 1415.07C109.266 1439.41 142.836 1454.54 179.738 1454.54H1215.34C1252.24 1454.54 1285.81 1439.41 1310.15 1415.07C1334.5 1390.73 1349.61 1357.14 1349.61 1320.24V284.66C1349.61 247.75 1334.5 214.18 1310.15 189.828C1309.79 189.469 1309.45 189.102 1309.12 188.719C1284.92 165.031 1251.78 150.371 1215.34 150.371H1162.57V188.309C1162.57 206.66 1155.01 223.398 1142.86 235.57L1142.91 235.609C1130.79 247.73 1114.03 255.27 1095.6 255.27C1077.16 255.27 1060.42 247.73 1048.3 235.609C1036.18 223.488 1028.65 206.738 1028.65 188.309V66.9688C1028.65 61.0312 1026.25 55.6484 1022.39 51.8008L1022.31 51.7188C1018.46 47.8594 1013.08 45.4688 1007.14 45.4688C1001.25 45.4688 995.867 47.8906 991.961 51.8008C988.059 55.6992 985.629 61.0781 985.629 66.9688V127.629C985.629 140.191 975.449 150.371 962.898 150.371H808.73V188.309C808.73 206.73 801.199 223.5 789.078 235.621C788.59 236.102 788.098 236.559 787.578 236.988C775.578 248.301 759.438 255.27 741.758 255.27C723.328 255.27 706.578 247.73 694.461 235.609C682.34 223.488 674.809 206.738 674.809 188.309V66.9688C674.809 61.0781 672.379 55.6992 668.48 51.8008C664.57 47.8906 659.188 45.4688 653.301 45.4688C647.359 45.4688 641.988 47.8594 638.141 51.7109C634.25 55.6094 631.82 61.0195 631.82 66.9688V127.629C631.82 140.191 621.641 150.371 609.078 150.371H454.91V188.309C454.91 206.66 447.359 223.398 435.211 235.57L435.25 235.609C423.129 247.73 406.379 255.27 387.938 255.27C369.508 255.27 352.75 247.73 340.629 235.609C340.148 235.129 339.688 234.629 339.258 234.109C327.93 222.078 320.969 205.941 320.969 188.309V66.9688C320.969 61.0391 318.559 55.6602 314.68 51.75L314.641 51.7891C310.738 47.8906 305.359 45.4688 299.469 45.4688C293.527 45.4688 288.148 47.8594 284.309 51.7188L284.258 51.75L284.309 51.8008C280.41 55.6992 277.98 61.0781 277.98 66.9688V127.629C277.98 140.191 267.801 150.371 255.25 150.371ZM179.738 104.898H232.508V66.9688C232.508 48.5508 240.051 31.7812 252.168 19.6602L252.211 19.6992C264.379 7.55078 281.109 0 299.469 0C317.91 0 334.66 7.53125 346.777 19.6484L346.738 19.6992L346.777 19.7383C358.898 31.8711 366.43 48.5898 366.43 66.9688V188.309C366.43 193.859 368.527 198.922 371.949 202.691L372.77 203.469C376.668 207.371 382.051 209.801 387.938 209.801C393.828 209.801 399.211 207.371 403.109 203.469L403.16 203.52L403.188 203.469C407.051 199.629 409.438 194.25 409.438 188.309V127.629C409.438 115.078 419.629 104.898 432.18 104.898H586.348V66.9688C586.348 48.5898 593.879 31.8711 606 19.7383C618.16 7.57031 634.918 0 653.301 0C671.738 0 688.488 7.53125 700.617 19.6602C712.738 31.7812 720.27 48.5508 720.27 66.9688V188.309C720.27 194.191 722.699 199.57 726.598 203.469C730.5 207.371 735.879 209.801 741.758 209.801C747.301 209.801 752.367 207.699 756.18 204.27L756.938 203.48C760.828 199.578 763.258 194.199 763.258 188.309V127.629C763.258 115.078 773.438 104.898 786 104.898H940.168V66.9688C940.168 48.5508 947.699 31.7812 959.82 19.6602C971.961 7.53125 988.699 0 1007.14 0C1025.44 0 1042.16 7.51172 1054.32 19.6094L1054.37 19.6602L1054.41 19.6992L1054.45 19.7383C1066.58 31.8984 1074.11 48.6211 1074.11 66.9688V188.309C1074.11 194.191 1076.54 199.57 1080.44 203.469C1084.34 207.371 1089.71 209.801 1095.6 209.801C1101.49 209.801 1106.87 207.371 1110.77 203.469L1110.81 203.52L1110.85 203.469C1114.7 199.629 1117.1 194.25 1117.1 188.309V127.629C1117.1 115.078 1127.28 104.898 1139.83 104.898H1215.34C1264.05 104.898 1308.45 124.602 1340.95 156.449C1341.41 156.828 1341.86 157.262 1342.29 157.691C1374.86 190.262 1395.08 235.211 1395.08 284.66V1320.24C1395.08 1369.68 1374.86 1414.64 1342.29 1447.21C1309.73 1479.77 1264.78 1500 1215.34 1500H179.738C130.297 1500 85.3477 1479.77 52.7852 1447.21C20.2188 1414.64 0 1369.68 0 1320.24V284.66C0 235.211 20.2188 190.262 52.7852 157.691L52.8281 157.738C85.4375 125.141 130.375 104.898 179.738 104.898ZM273.027 546.961C260.48 546.961 250.301 536.781 250.301 524.219C250.301 511.672 260.48 501.488 273.027 501.488H1122.03C1134.58 501.488 1144.76 511.672 1144.76 524.219C1144.76 536.781 1134.58 546.961 1122.03 546.961H273.027ZM273.027 767.371C260.48 767.371 250.301 757.191 250.301 744.641C250.301 732.078 260.48 721.898 273.027 721.898H1122.03C1134.58 721.898 1144.76 732.078 1144.76 744.641C1144.76 757.191 1134.58 767.371 1122.03 767.371H273.027ZM273.027 987.898C260.48 987.898 250.301 977.719 250.301 965.172C250.301 952.621 260.48 942.441 273.027 942.441H1122.03C1134.58 942.441 1144.76 952.621 1144.76 965.172C1144.76 977.719 1134.58 987.898 1122.03 987.898H273.027ZM273.027 1208.32C260.48 1208.32 250.301 1198.14 250.301 1185.58C250.301 1173.03 260.48 1162.85 273.027 1162.85H805.277C817.828 1162.85 828.008 1173.03 828.008 1185.58C828.008 1198.14 817.828 1208.32 805.277 1208.32H273.027Z" fill="black"/>
</svg>
